<?xml version="1.0" standalone="no"?>
<!DOCTYPE svg PUBLIC "-//W3C//DTD SVG 20010904//EN"
 "http://www.w3.org/TR/2001/REC-SVG-20010904/DTD/svg10.dtd">
<svg version="1.0" xmlns="http://www.w3.org/2000/svg"
 width="700.000000pt" height="700.000000pt" viewBox="0 0 700.000000 700.000000"
 preserveAspectRatio="xMidYMid meet">
<g transform="translate(0.000000,700.000000) scale(0.100000,-0.100000)"
fill="#000000" stroke="none">
<path d="M3315 6889 c-44 -4 -93 -10 -110 -12 -16 -3 -50 -8 -75 -12 -171 -25
-416 -108 -600 -203 -83 -43 -290 -174 -320 -203 -8 -8 -32 -26 -52 -42 -40
-29 -214 -199 -265 -258 -167 -193 -324 -475 -404 -724 -37 -113 -67 -246 -82
-362 -5 -33 -9 -35 -89 -39 -333 -16 -663 -161 -902 -398 -51 -50 -105 -109
-122 -131 -16 -22 -31 -42 -34 -45 -3 -3 -25 -34 -48 -68 -88 -133 -172 -344
-203 -508 -11 -61 -8 -505 4 -551 41 -156 74 -249 127 -353 122 -240 353 -476
595 -605 130 -69 331 -135 460 -150 28 -3 64 -8 80 -10 17 -2 471 -4 1011 -4
l980 -1 0 -640 c0 -352 -2 -640 -5 -640 -4 0 -141 135 -306 301 -165 165 -315
310 -333 321 -18 11 -58 22 -92 25 -171 16 -292 -135 -243 -302 14 -47 50 -86
551 -587 502 -501 540 -537 587 -551 63 -18 125 -14 178 13 61 29 1079 1051
1102 1105 65 157 -46 326 -214 325 -31 0 -73 -8 -94 -18 -24 -11 -152 -131
-346 -324 -169 -170 -310 -308 -313 -308 -2 0 -4 288 -4 640 l0 640 980 1
c540 0 1001 3 1026 5 223 21 466 110 665 245 44 29 130 103 190 164 199 198
322 417 384 685 17 72 20 121 20 316 0 128 -4 247 -10 265 -5 19 -12 48 -14
64 -17 98 -90 275 -166 400 -82 138 -227 300 -344 388 -83 62 -116 83 -196
126 -136 72 -289 125 -424 147 -105 16 -136 20 -187 19 l-58 0 -6 45 c-16 120
-68 319 -119 460 -31 86 -143 306 -202 395 -182 274 -414 497 -688 662 -142
85 -253 136 -425 193 -117 40 -313 83 -430 95 -95 10 -323 12 -415 4z"/>
</g>
</svg>
