<svg height="480pt" viewBox="0 -8 480 480" width="480pt" xmlns="http://www.w3.org/2000/svg">
  <path d="m384 127.539062h-.945312c-8.363282-72.679687-69.894532-127.539062-143.054688-127.539062s-134.691406 54.859375-143.054688 127.539062h-.945312c-53.019531 0-96 42.980469-96 96 0 53.019532 42.980469 96 96 96h288c53.019531 0 96-42.980468 96-96 0-53.019531-42.980469-96-96-96zm0 0" fill="#e6e7e8" stroke-width="2" stroke="#000000"/>
  <path d="m296.558594 368.339844-40.558594 40.574218v-201.375c0-8.835937-7.164062-16-16-16s-16 7.164063-16 16v201.375l-40.558594-40.574218c-4.019531-4.160156-9.96875-5.828125-15.5625-4.363282-5.59375 1.464844-9.960937 5.832032-11.425781 11.425782s.203125 11.542968 4.363281 15.558594l67.855469 67.875c1.480469 1.476562 3.234375 2.652343 5.167969 3.453124 3.9375 1.664063 8.382812 1.664063 12.320312 0 1.933594-.800781 3.6875-1.976562 5.167969-3.453124l67.855469-67.875c4.160156-4.015626 5.828125-9.964844 4.363281-15.558594s-5.832031-9.960938-11.425781-11.425782c-5.59375-1.464843-11.542969.203126-15.5625 4.363282zm0 0" fill="#ff4258" /></svg>